<svg viewBox="0 0 38 38" xmlns="http://www.w3.org/2000/svg" xmlns:xlink="http://www.w3.org/1999/xlink" width="38.000000" height="38.000000" fill="none" customFrame="#000000">
	<rect id="Icon/Plus/Outline" width="38.000000" height="38.000000" x="0.000000" y="0.000000" fill="rgb(255,255,255)" fill-opacity="0" />
	<rect id="Icon/Plus/Outline" width="36.000000" height="36.000000" x="1.000000" y="1.000000" stroke="rgb(46,180,115)" stroke-opacity="0" stroke-width="2.000000" />
	<circle id="Ellipse" cx="19" cy="19" r="19" fill="rgb(46,180,115)" />
	<circle id="Ellipse" cx="19" cy="19" r="16.5" stroke="rgb(46,180,115)" stroke-width="5.000000" />
	<path id="Plus" d="M10 16.625L16.625 16.625L16.625 10C16.625 9.72386 16.8489 9.5 17.125 9.5L20.875 9.5C21.1511 9.5 21.375 9.72386 21.375 10L21.375 16.625L28 16.625C28.2761 16.625 28.5 16.8489 28.5 17.125L28.5 20.875C28.5 21.1511 28.2761 21.375 28 21.375L21.375 21.375L21.375 28C21.375 28.2761 21.1511 28.5 20.875 28.5L17.125 28.5C16.8489 28.5 16.625 28.2761 16.625 28L16.625 21.375L10 21.375C9.72386 21.375 9.5 21.1511 9.5 20.875L9.5 17.125C9.5 16.8489 9.72386 16.625 10 16.625Z" fill="rgb(255,255,255)" fill-rule="evenodd" />
</svg>
