<svg viewBox="0 0 24 24" xmlns="http://www.w3.org/2000/svg" xmlns:xlink="http://www.w3.org/1999/xlink" width="24.000000" height="24.000000" fill="none" customFrame="#000000">
	<defs>
		<filter id="pixso_custom_mask_type_alpha">
			<feColorMatrix type="matrix" values="0 0 0 0 1 0 0 0 0 1 0 0 0 0 1 0 0 0 1 0 " />
		</filter>
		<clipPath id="clipPath_3">
			<rect width="24.000000" height="24.000000" x="0.000000" y="0.000000" fill="rgb(255,255,255)" />
		</clipPath>
	</defs>
	<mask id="mask_1" width="24.000000" height="24.000000" x="0.000000" y="0.000000" maskUnits="userSpaceOnUse">
		<g filter="url(#pixso_custom_mask_type_alpha)">
			<path id="Mask" d="M23 24C23.3 24 23.5 23.9 23.7 23.7C24.1 23.3 24.1 22.7 23.7 22.3L1.7 0.3C1.3 -0.1 0.7 -0.1 0.3 0.3C-0.1 0.7 -0.1 1.3 0.3 1.7L4.6 6C2.8 7.5 1.2 9.4 0.1 11.5C0 11.8 0 12.1 0.1 12.4C0.3 12.8 4.5 21 12 21C14.1 21 16.1 20.4 17.8 19.2L22.3 23.7C22.5 23.9 22.7 24 23 24ZM8.89995 4.4999C8.79995 3.8999 9.09995 3.3999 9.69995 3.2999C10.4 3.0999 11.2 2.9999 12 2.9999C19.5 2.9999 23.7 11.1999 23.9 11.5999C24 11.8999 24 12.1999 23.9 12.4999C23.3 13.6999 22.5 14.7999 21.6 15.8999C21.4 16.0999 21.1 16.2999 20.8 16.2999C20.6 16.2999 20.3 16.1999 20.2 16.0999C19.8 15.6999 19.7 15.0999 20.1 14.6999C20.8 13.8999 21.4 13.0999 21.9 12.1999C21 10.5999 17.4 5.1999 12 5.1999C11.4 5.1999 10.7 5.2999 10.1 5.3999C9.59995 5.2999 9.09995 4.9999 8.89995 4.4999ZM14 15.4997L16.4 17.7997C15 18.5997 13.5 18.9997 12 18.9997C6.6 18.9997 3 13.5997 2.1 11.9997C3.2 10.1997 4.5 8.69971 6 7.39971L8.5 9.89971C8.1 10.5997 7.9 11.3997 7.9 12.1997C8 13.2997 8.4 14.2997 9.2 14.9997C9.9 15.6997 10.9 16.0997 11.9 16.0997C12.6 16.0997 13.4 15.8997 14 15.4997ZM9.89995 12.1C9.89995 12.6 10.1 13.1 10.5 13.5C11.1 14 11.8 14.1 12.5 13.9L9.99995 11.4C9.99995 11.7 9.89995 11.9 9.89995 12.1Z" fill="rgb(79,81,89)" fill-rule="evenodd" />
		</g>
	</mask>
	<rect id="Feather Icon / eye-off" width="24.000000" height="24.000000" x="0.000000" y="0.000000" fill="rgb(255,255,255)" fill-opacity="0" />
	<path id="Mask" d="M23 24C23.3 24 23.5 23.9 23.7 23.7C24.1 23.3 24.1 22.7 23.7 22.3L1.7 0.3C1.3 -0.1 0.7 -0.1 0.3 0.3C-0.1 0.7 -0.1 1.3 0.3 1.7L4.6 6C2.8 7.5 1.2 9.4 0.1 11.5C0 11.8 0 12.1 0.1 12.4C0.3 12.8 4.5 21 12 21C14.1 21 16.1 20.4 17.8 19.2L22.3 23.7C22.5 23.9 22.7 24 23 24ZM8.89995 4.4999C8.79995 3.8999 9.09995 3.3999 9.69995 3.2999C10.4 3.0999 11.2 2.9999 12 2.9999C19.5 2.9999 23.7 11.1999 23.9 11.5999C24 11.8999 24 12.1999 23.9 12.4999C23.3 13.6999 22.5 14.7999 21.6 15.8999C21.4 16.0999 21.1 16.2999 20.8 16.2999C20.6 16.2999 20.3 16.1999 20.2 16.0999C19.8 15.6999 19.7 15.0999 20.1 14.6999C20.8 13.8999 21.4 13.0999 21.9 12.1999C21 10.5999 17.4 5.1999 12 5.1999C11.4 5.1999 10.7 5.2999 10.1 5.3999C9.59995 5.2999 9.09995 4.9999 8.89995 4.4999ZM14 15.4997L16.4 17.7997C15 18.5997 13.5 18.9997 12 18.9997C6.6 18.9997 3 13.5997 2.1 11.9997C3.2 10.1997 4.5 8.69971 6 7.39971L8.5 9.89971C8.1 10.5997 7.9 11.3997 7.9 12.1997C8 13.2997 8.4 14.2997 9.2 14.9997C9.9 15.6997 10.9 16.0997 11.9 16.0997C12.6 16.0997 13.4 15.8997 14 15.4997ZM9.89995 12.1C9.89995 12.6 10.1 13.1 10.5 13.5C11.1 14 11.8 14.1 12.5 13.9L9.99995 11.4C9.99995 11.7 9.89995 11.9 9.89995 12.1Z" fill="rgb(79,81,89)" fill-rule="evenodd" />
	<g mask="url(#mask_1)">
		<g id="Icon 🎨" customFrame="url(#clipPath_3)">
			<rect id="Icon 🎨" width="24.000000" height="24.000000" x="0.000000" y="0.000000" fill="rgb(255,255,255)" fill-opacity="0" />
			<path id="Shape" d="M0 0L24 0L24 24L0 24L0 0Z" fill="rgb(79,81,89)" fill-rule="evenodd" />
		</g>
	</g>
</svg>
