<svg viewBox="0 0 20 21.0526" xmlns="http://www.w3.org/2000/svg" xmlns:xlink="http://www.w3.org/1999/xlink" width="20.000000" height="21.052612" fill="none">
	<rect id="edit-line" width="20.000000" height="21.052631" x="0.000000" y="0.000000" fill="rgb(255,255,255)" fill-opacity="0" />
	<path id="矢量 52" d="M5.345 14.0351L13.7967 5.13862L12.6183 3.89827L4.16667 12.7947L4.16667 14.0351L5.345 14.0351ZM6.03583 15.7895L2.5 15.7895L2.5 12.0676L12.0292 2.03686C12.1854 1.87242 12.3973 1.78003 12.6183 1.78003C12.8393 1.78003 13.0512 1.87242 13.2075 2.03686L15.565 4.51844C15.7212 4.68293 15.809 4.90601 15.809 5.13862C15.809 5.37121 15.7212 5.59429 15.565 5.75879L6.03583 15.7895L6.03583 15.7895ZM2.5 17.5439L17.5 17.5439L17.5 19.2983L2.5 19.2983L2.5 17.5439Z" fill="rgb(68,68,68)" fill-rule="evenodd" />
</svg>
