<svg viewBox="0 0 24 24" xmlns="http://www.w3.org/2000/svg" xmlns:xlink="http://www.w3.org/1999/xlink" width="24.000000" height="24.000000" fill="none" customFrame="#000000">
	<defs>
		<filter id="pixso_custom_mask_type_alpha">
			<feColorMatrix type="matrix" values="0 0 0 0 1 0 0 0 0 1 0 0 0 0 1 0 0 0 1 0 " />
		</filter>
		<clipPath id="clipPath_0">
			<rect width="24.000000" height="24.000000" x="0.000000" y="0.000000" fill="rgb(255,255,255)" />
		</clipPath>
	</defs>
	<mask id="mask_0" width="24.000000" height="18.000000" x="0.000000" y="3.000000" maskUnits="userSpaceOnUse">
		<g filter="url(#pixso_custom_mask_type_alpha)">
			<path id="Mask" d="M23.9248 11.6C23.7244 11.2 19.5157 3 12 3C4.48434 3 0.275574 11.2 0.0751566 11.6C-0.0250522 11.9 -0.0250522 12.2 0.0751566 12.5C0.275574 12.8 4.48434 21 12 21C19.5157 21 23.7244 12.8 23.9248 12.4C24.0251 12.2 24.0251 11.8 23.9248 11.6ZM2.07933 12C3.08142 13.6 6.58873 19 12 19C17.4113 19 20.9186 13.6 21.9207 12C20.9186 10.4 17.4113 5 12 5C6.58873 5 2.98121 10.4 2.07933 12ZM12 8C9.79541 8 7.99165 9.8 7.99165 12C7.99165 14.2 9.79541 16 12 16C14.2046 16 16.0084 14.2 16.0084 12C16.0084 9.8 14.2046 8 12 8ZM9.99582 12C9.99582 13.1 10.8977 14 12 14C13.1023 14 14.0042 13.1 14.0042 12C14.0042 10.9 13.1023 10 12 10C10.8977 10 9.99582 10.9 9.99582 12Z" fill="rgb(40,40,40)" fill-rule="evenodd" />
		</g>
	</mask>
	<rect id="Feather Icon / eye" width="24.000000" height="24.000000" x="0.000000" y="0.000000" fill="rgb(255,255,255)" fill-opacity="0" />
	<path id="Mask" d="M23.9248 11.6C23.7244 11.2 19.5157 3 12 3C4.48434 3 0.275574 11.2 0.0751566 11.6C-0.0250522 11.9 -0.0250522 12.2 0.0751566 12.5C0.275574 12.8 4.48434 21 12 21C19.5157 21 23.7244 12.8 23.9248 12.4C24.0251 12.2 24.0251 11.8 23.9248 11.6ZM2.07933 12C3.08142 13.6 6.58873 19 12 19C17.4113 19 20.9186 13.6 21.9207 12C20.9186 10.4 17.4113 5 12 5C6.58873 5 2.98121 10.4 2.07933 12ZM12 8C9.79541 8 7.99165 9.8 7.99165 12C7.99165 14.2 9.79541 16 12 16C14.2046 16 16.0084 14.2 16.0084 12C16.0084 9.8 14.2046 8 12 8ZM9.99582 12C9.99582 13.1 10.8977 14 12 14C13.1023 14 14.0042 13.1 14.0042 12C14.0042 10.9 13.1023 10 12 10C10.8977 10 9.99582 10.9 9.99582 12Z" fill="rgb(33,37,41)" fill-rule="evenodd" />
	<g mask="url(#mask_0)">
		<g id="Icon 🎨" customFrame="url(#clipPath_0)">
			<rect id="Icon 🎨" width="24.000000" height="24.000000" x="0.000000" y="0.000000" fill="rgb(255,255,255)" fill-opacity="0" />
			<path id="Shape" d="M0 0L24 0L24 24L0 24L0 0Z" fill="rgb(33,37,41)" fill-rule="evenodd" />
		</g>
	</g>
</svg>
