<svg viewBox="0 0 32 32" xmlns="http://www.w3.org/2000/svg" xmlns:xlink="http://www.w3.org/1999/xlink" width="32.000000" height="32.000000" fill="none">
	<rect id="settings_outline_28" width="32.000000" height="32.000000" x="0.000000" y="0.000000" />
	<path id="↳ Icon Color" d="M17.312 2.33227C17.8006 2.41045 18.2628 2.59741 18.6778 2.92943C19.3577 3.47333 19.6815 4.15896 19.9317 5.15991C19.9958 5.41616 20.1066 5.71488 20.2452 6.0048C20.563 6.13991 20.8739 6.29008 21.177 6.45473C21.4761 6.38082 21.7634 6.28267 21.9928 6.17587C23.6068 5.42449 24.9608 5.46397 26.0696 6.65992C26.1634 6.76107 26.2194 6.82808 26.3412 6.97854L27.0604 7.8667C27.2539 8.10557 27.3365 8.2144 27.4585 8.41747C28.2492 9.7334 27.9409 10.9589 26.9415 12.287C26.7756 12.5073 26.6063 12.7958 26.4647 13.0992C26.554 13.4221 26.6285 13.7496 26.6876 14.0807C26.9422 14.2846 27.2128 14.4633 27.4518 14.5853C28.3708 15.0543 28.966 15.524 29.343 16.3088C29.5732 16.7878 29.6514 17.2803 29.6176 17.774C29.5998 18.0349 29.5716 18.1803 29.4964 18.506L29.2393 19.6196C29.1641 19.9453 29.1257 20.0884 29.0274 20.3307C28.8413 20.7892 28.5551 21.1975 28.1382 21.5273C27.4553 22.0674 26.7145 22.2286 25.6829 22.2472C25.4219 22.252 25.1101 22.2919 24.7999 22.3602C24.5982 22.6389 24.3834 22.9078 24.1564 23.1661C24.1602 23.4795 24.1914 23.7875 24.2448 24.0393C24.4586 25.0487 24.4682 25.8068 24.0956 26.5937C23.8681 27.0741 23.5346 27.4447 23.1297 27.7292C22.9157 27.8796 22.7849 27.9492 22.4845 28.0957L21.4573 28.5967C21.1569 28.7432 21.0215 28.8034 20.7713 28.8795C20.2978 29.0234 19.8004 29.058 19.2818 28.9415C18.4323 28.7507 17.8408 28.2764 17.1771 27.4864C17.0016 27.2776 16.7619 27.0504 16.5013 26.8457C16.3346 26.8533 16.1675 26.8571 16 26.8571C15.8325 26.8571 15.6653 26.8533 15.4987 26.8457C15.238 27.0504 14.9983 27.2776 14.8229 27.4864C14.1592 28.2764 13.5676 28.7507 12.7181 28.9415C12.1995 29.058 11.7021 29.0234 11.2287 28.8795C10.9785 28.8034 10.8431 28.7432 10.5427 28.5967L9.51546 28.0957C9.42515 28.0517 9.36913 28.024 9.30369 27.9899C7.80478 27.2093 7.36536 25.879 7.75519 24.0393C7.80855 23.7875 7.8397 23.4795 7.84359 23.1661C7.61651 22.9078 7.40173 22.6389 7.20005 22.3602C6.88986 22.2919 6.57803 22.252 6.31707 22.2472C5.28548 22.2286 4.5446 22.0674 3.8617 21.5273C3.44483 21.1975 3.15868 20.7892 2.97259 20.3307C2.87423 20.0884 2.83582 19.9453 2.76063 19.6196L2.50354 18.506C2.42393 18.1612 2.39461 18.0074 2.37951 17.728C2.3512 17.2043 2.45143 16.6839 2.71729 16.1902C3.10466 15.4709 3.67803 15.0293 4.54817 14.5853C4.78717 14.4633 5.05776 14.2846 5.31234 14.0807C5.37149 13.7496 5.4459 13.4221 5.53525 13.0992C5.39361 12.7958 5.2243 12.5073 5.05848 12.287C4.05906 10.9589 3.75075 9.7334 4.54144 8.41747C4.66346 8.2144 4.74609 8.10557 4.93952 7.8667L5.65874 6.97854C5.78058 6.82808 5.83657 6.76107 5.93036 6.65992C7.03916 5.46397 8.39315 5.42449 10.0071 6.17587C10.2366 6.28267 10.5238 6.38082 10.823 6.45473C11.1261 6.29008 11.437 6.13991 11.7548 6.0048C11.8933 5.71488 12.0042 5.41616 12.0682 5.15991C12.3185 4.15896 12.6422 3.47333 13.3221 2.92943C13.7371 2.59741 14.1993 2.41045 14.688 2.33227C14.8946 2.29921 15.0307 2.28925 15.248 2.28658L16.5714 2.28571C16.9057 2.28571 17.0537 2.29095 17.312 2.33227ZM16.6693 4.57165L15.4285 4.57142C14.8571 4.57142 14.5714 4.57142 14.2857 5.71428C14.1271 6.34864 13.7924 7.15907 13.3306 7.85238C12.5962 8.09283 11.9055 8.42981 11.2736 8.84832C10.4544 8.76761 9.62774 8.52051 9.04247 8.24804C7.9745 7.75086 7.79469 7.9729 7.43508 8.41698L6.71586 9.30515C6.35624 9.74923 6.17644 9.97128 6.8848 10.9125C7.28349 11.4423 7.70895 12.2267 7.95568 13.0337C7.70303 13.7187 7.53536 14.4447 7.46546 15.1992C6.89219 15.8097 6.17294 16.3223 5.58715 16.6212C4.53786 17.1567 4.60213 17.4351 4.73067 17.9919L4.98776 19.1054C5.1163 19.6622 5.18057 19.9406 6.35841 19.9619C7.00964 19.9737 7.87037 20.1164 8.64742 20.4081C9.04208 21.065 9.52229 21.6646 10.0726 22.1916C10.1804 23.0116 10.1258 23.8783 9.99125 24.5131C9.74705 25.6656 10.0039 25.7908 10.5175 26.0413L11.5446 26.5423C12.0582 26.7928 12.315 26.9181 13.0728 26.0161C13.4977 25.5104 14.1629 24.9219 14.8905 24.5003C15.2537 24.5472 15.624 24.5714 16 24.5714C16.3759 24.5714 16.7462 24.5472 17.1094 24.5003C17.8371 24.9219 18.5022 25.5104 18.9271 26.0161C19.6849 26.9181 19.9417 26.7928 20.4553 26.5423L21.4825 26.0413C21.9961 25.7908 22.2529 25.6656 22.0087 24.5131C21.8742 23.8783 21.8195 23.0116 21.9273 22.1916C22.4777 21.6646 22.9579 21.065 23.3525 20.4081C24.1296 20.1164 24.9903 19.9737 25.6415 19.9619C26.8194 19.9406 26.8836 19.6622 27.0122 19.1054L27.2693 17.9919C27.3978 17.4351 27.4621 17.1567 26.4128 16.6212C25.827 16.3223 25.1078 15.8097 24.5345 15.1992C24.4646 14.4447 24.2969 13.7187 24.0443 13.0337C24.291 12.2267 24.7165 11.4423 25.1152 10.9125C25.8235 9.97128 25.6437 9.74923 25.2841 9.30515L24.5649 8.41698C24.2053 7.9729 24.0255 7.75086 22.9575 8.24804C22.3722 8.52051 21.5456 8.76761 20.7264 8.84832C20.0944 8.42981 19.4037 8.09283 18.6694 7.85238C18.2075 7.15907 17.8729 6.34864 17.7143 5.71428C17.4454 4.63865 17.1764 4.57537 16.6693 4.57165ZM16 10.8571C18.8403 10.8571 21.1428 13.1597 21.1428 16C21.1428 18.8403 18.8403 21.1428 16 21.1428C13.1597 21.1428 10.8571 18.8403 10.8571 16C10.8571 13.1597 13.1597 10.8571 16 10.8571ZM16 13.1428C14.422 13.1428 13.1428 14.422 13.1428 16C13.1428 17.5779 14.422 18.8571 16 18.8571C17.5779 18.8571 18.8571 17.5779 18.8571 16C18.8571 14.422 17.5779 13.1428 16 13.1428Z" fill="rgb(79,81,89)" fill-rule="evenodd" />
</svg>
